<svg version="1" xmlns="http://www.w3.org/2000/svg" width="237.333" height="237.333" viewBox="0 0 178.000000 178.000000"><path d="M51.7.7c-3.3.4-3.6.7-3.1 2.8.9 3.5-1.2 3.9-2.6.5-.8-1.8-2-3-3.1-3-2.4 0-2.4.2.2 5.1 2.1 4.2 1.9 6-.4 4.1-.8-.7-1.8-.8-2.2-.4-.5.4-.5.1-.1-.6s-.2-2.8-1.4-4.7c-2.1-3.4-2.4-3.5-8.1-3.4l-5.9.2 6.5 9.3c3.6 5.2 6.5 9.6 6.5 9.9 0 1.9-2.6-.8-9.1-9.5-4.1-5.4-8-9.9-8.8-10-.9 0-1 .4-.4 1.2 15.5 19.7 18.1 23.6 15.4 22.6-.5-.2-5.5-5.6-11.1-12.1L13.9 1H.3L.2 4.1c-.1 2.7 1.7 5 12.4 16.1 6.9 7.2 12.2 13.3 11.9 13.6-.3.3-6-4.8-12.5-11.3C5.4 15.9 0 11.2 0 12.1c0 .9 6.7 7.8 15 15.5 14.1 13 17.5 16.8 13.1 14.5-1-.6-2.2-.7-2.6-.3-.5.4-.5.2-.2-.4.4-.7-4.6-5.8-12.1-12.4L.5 17.8.2 21c-.2 2 .2 3.6 1 4.1 1 .7 1 .9-.2.9-1.3 0-1.3.1 0 1 1 .6 1.1 1 .3 1-3.6 0-.2 3.7 9.4 10.2 14.4 9.8 13.7 9.4 13 7.4-.4-1-.3-1.5.3-1.1.6.3 1 1.2 1 2 0 .7 1.2 2.3 2.8 3.5 2.6 2 2.6 2.1.3 1.4-1.7-.4-2.2-.3-1.6.6.5.9.4 1.1-.4.6-.6-.4-.9-1.1-.6-1.6.3-.4-.6-1.5-2-2.4-2.9-1.9-3.9-2-2.9-.4.4.7.3.8-.5.4-.6-.4-.9-1.1-.6-1.6.4-.7-17.4-13-18.9-13-.3 0-.6 4-.6 9 0 6 .4 9 1.1 9 .8 0 .8.4.1 1.2-.5.7-.9 3.3-.9 5.8l.2 4.4 8 2.5c8.4 2.5 9.1 2.8 8.4 3.6-.3.2-3.8-.5-7.9-1.5-8.6-2.2-9-2.3-9-1.2 0 .5 3.6 1.7 8 2.7 4.5 1 8.3 2.2 8.6 2.7.7 1.1-1 1-9.3-.6L.1 70.2l.2 5.7.2 5.6 7.7 1c10.6 1.4 10.7 2.4.1 1.9-6.9-.3-8-.1-4.8.6 2.2.5 6.1.9 8.8.9 2.6.1 4.7.6 4.7 1.2 0 .7-2.9.9-8.5.7L0 87.5v13.7c0 7.6.3 13.8.7 13.8 2.8 0 16.1-3.5 15.7-4.1-.2-.4.1-1.1.7-1.5.8-.4.9-.3.5.4-.5.9 1 1.1 5.3.7 3.4-.2 6.1 0 6.1.5s-3.1 1.9-6.9 3.1c-3.9 1.3-6.7 2.7-6.4 3.2.3.5 1.4.6 2.6.3 1.9-.5 1.9-.4.4 1.2-1.6 1.5-1.8 1.5-3-.2-.9-1.3-2-1.6-4-1.1-1.5.4-2.4 1.2-2 1.8.3.6.1.7-.5.3-1.4-.9-6.3.4-5.7 1.4.3.5-.3.6-1.4.3-1.7-.4-1.9.2-1.9 8.5l-.1 9 10.7-4.5c18.8-7.9 23.1-9.5 24.3-9.1.7.2-2.2 1.9-6.4 3.7-4.4 1.9-7.4 3.8-7 4.4.3.6.1.7-.5.3-.6-.4-5.5 1.3-10.9 3.8C2 141.2.5 142.3.2 144.5c-.2 1.4 0 2.5.4 2.5.7 0 24.1-12.5 33.2-17.7 2.3-1.4 4.2-2.1 4.2-1.6s-5.2 3.9-11.5 7.7c-6.6 3.9-11.2 7.3-10.8 7.9.3.6.1.7-.5.3-.7-.4-3.3.5-5.8 2-4.1 2.4-4.5 2.9-2.8 3.6 1.5.7 1.5.8-.5.4-3.7-.7-6.1 1-6.1 4.5 0 1.7.3 2.9.8 2.7 5.7-2.5 24.2-13.2 24.2-14 0-.6.3-.8.6-.5.4.3 1.5.2 2.5-.4 1.1-.6 1.9-.6 1.9 0 0 .5-.7 1.2-1.6 1.5-.8.3-1.2 1.1-.8 1.7.4.8.3.9-.4.5-1.3-.8-7.3 2.4-6.7 3.5.3.4-.3.6-1.3.5-.9 0-1.6.5-1.4 1.2.1.8-.2 1.1-.8.7-1.5-1-17 8.7-17 10.7 0 .9.6 1.9 1.3 2.1.9.4.9.6 0 .6-.8.1-1.3 1.6-1.3 4.1v4l12.5-9c6.9-5 12.7-9 13-9 2.1 0-1.2 3.2-12 11.5-6.9 5.3-12.3 10-12 10.6.4.5.8.9 1 .9.2 0 5.6-4.3 12-9.5 7.9-6.5 11.5-8.9 11.5-7.7 0 .9-2.5 3.9-5.5 6.5-3.1 2.7-5.3 5.3-5 5.8.3.5 0 .6-.7.4-.8-.3-2.5.6-3.8 2L8.7 178H30v-12.5c0-13.6.6-15.9 5.7-20.7 3.8-3.6 7.3-4.8 14.2-4.8 6 0 16.8 3.1 21.1 6 4.3 3 10.2 4.4 18.5 4.4 7.2 0 8.7-.3 13.9-3.2 3.3-1.8 6.7-3.2 7.6-3.2.9 0 4.3-.9 7.5-2 7.8-2.7 18.6-2.7 22.9 0 1.8 1 4.3 3.8 5.6 6.2 2.2 3.8 2.5 5.7 2.8 17.1l.4 12.7h2.9c2.6 0 2.8-.2 1.9-1.9-.5-1.1-1-2.8-1-3.8 0-1.2.8-.6 2.7 2 2.4 3.4 4.3 4.7 4.3 3.1 0-.4-1.5-2.5-3.3-4.8-3.6-4.4-5.2-7.6-3.8-7.6.5 0 3.3 2.9 6.2 6.4l5.4 6.5h6.3c5.9.1 6.2 0 6.2-2.3 0-1.7-4.1-6.7-14.5-17.6-8-8.4-14.3-15.5-14-15.8.3-.3 6.9 5.7 14.5 13.3 7.7 7.7 14 13.3 14 12.4 0-2.3-31.8-32.1-33.3-31.3-.7.4-.9.4-.5-.1.4-.4.2-1.5-.4-2.3-.7-.8-1.3-2.1-1.5-3.1-.1-1.2.2-1.1 1.5.5.9 1.2 5.4 5.4 9.9 9.3 7.3 6.4 8.5 7.1 10.4 6.1 1.1-.7 2.3-.9 2.6-.6.3.3-.4.9-1.6 1.4-2.1.7-1.7 1.3 5.3 7.6l7.6 6.8v-10l-12-9.6c-6.6-5.3-12.4-9.5-12.8-9.2-.4.2-.9-.4-.9-1.5-.2-1.6.9-1.1 5.7 2.6 5.9 4.5 7.7 5.5 6.4 3.3-.4-.7-.3-.8.5-.4.6.4.9 1.1.6 1.6-.3.5.5 1.6 1.7 2.4 1.7 1.2 2.4 1.3 3 .3.6-.8.8-.7.6.5-.2 1 1.1 2.8 3.2 4.3l3.5 2.6.3-12.2c.2-7.6-.1-12.6-.8-13.4-.8-.9-.8-1.5 0-2 1.9-1.1 1-2.5-1.6-2.5-1.4 0-2.3.4-1.9.9.3.5.1 1.2-.4 1.6-.6.3-.8-.3-.6-1.3.3-1.7-1-2.2-10.5-4.2-6.5-1.4-11.1-2.8-11.4-3.6-.7-1.7 2.2-1.7 16.6-.1l10.6 1.3V99l-3.2-.1c-8-.1-17.6-1.2-17.6-2 0-.5 4.7-.9 10.3-.9 8.6 0 10.4-.3 10.4-1.5s-1.8-1.5-9.6-1.6c-7.8-.1-8.9-.3-5.6-1 2.2-.4 6-.8 8.5-.9 5.9-.1 7-.9 6.8-5.3-.1-2.1-.5-3.4-1.1-3-.6.4-.7.1-.2-.7.4-.7.9-2.6 1.1-4.2.3-2.4.1-2.8-1.4-2.4-2.7.8-10.6 2.5-11.7 2.6-.6 0-1.1-.9-1.2-1.9-.1-1.6 1.2-2.4 6.5-4.2 3.7-1.2 7.2-2.6 7.7-3.2.7-.7.4-.8-1-.3-1.9.6-1.9.5-.2-.8 1.3-1 1.7-2.8 1.7-8.1 0-6-.2-6.6-1.7-6-1 .4-3 1.2-4.5 1.7-1.6.5-2.5 1.4-2.2 1.9.3.5-.1.6-.9.4-.7-.3-5.1 1-9.7 3s-8.8 3.4-9.4 3.1c-1-.3 16.4-9 25.2-12.5 2.5-1.1 3.2-1.9 3.2-4.1v-2.8l-12 6.6c-6.5 3.6-11.6 7-11.3 7.5.3.6.1.7-.5.3-.6-.4-2.1-.2-3.2.4-1.3.7-2 .7-2 .1s6.5-4.9 14.5-9.6C177 41.5 178 40.7 178 38c0-1.7-.3-3-.7-3-1.6 0-6.3 3.7-5.6 4.4.4.4.1.5-.7.2-1.8-.7-17.3 7.7-16.3 8.8.4.4 0 .4-.9.1-1-.4-1.4-1.3-1.1-2.1.3-.8.8-1.3 1.1-1 1.1 1.2 4.1-1.5 3.6-3.2-.5-1.3-.4-1.4.4-.3.8 1 2.9.2 10.6-4.4l9.7-5.7-.2-6.4c-.2-6.3-.2-6.4-2.3-5-1.2.8-2 2-1.8 2.6.1.6-.2.9-.8.5-1.1-.7-20.2 12.4-19.5 13.4.2.4 0 1.3-.6 2.1-.6 1.1-.9 1.2-.9.2 0-.9-.7-1.1-2.2-.7-3.3 1-2.3.1 13.7-12.3 7.7-5.9 14.2-11.6 14.3-12.6.3-1.2-3.3 1.2-9.8 6.5-17.6 14.5-21 17.1-21 16 0-.6 7-7.2 15.5-14.8C176.5 8.9 178 7.2 178 4.2V1h-12.5l-9.4 9.4c-5.3 5.3-9.1 9.9-8.7 10.5.5.7.1.8-1 .4-1.3-.5-1.6-.3-1.1 1 .4 1.1.2 1.4-.9 1-.7-.3-1.4-.9-1.4-1.3 0-.5 3.8-5.3 8.5-10.6s8.3-10 7.9-10.3c-.6-.6-1.7.6-12.6 12.9-7.6 8.7-7.5 5.4.2-4.5 3.3-4.3 6-7.9 6-8.1 0-.2-4.7-.4-10.5-.4-10 0-10.6.1-11.5 2.2l-.9 2.3-.6-2.1c-.4-1.4-1.8-2.4-3.7-2.8-5.2-1-6.4-.7-6.5 1.6-.2 1.7 0 1.9.7.9.7-1.2 1.3-1.2 3.6.4 14.1 9.2 23 30.9 22.2 54l-.3 9-4.8.3c-4.2.3-4.8 0-5.6-2-1.5-3.9-3.9-5.2-11.4-5.8l-7.2-.6 6.3-.8c3.4-.5 6.2-1.3 6.2-1.9 0-.5-.5-2.7-1.2-4.9l-1.1-3.9-4.6.7c-5.5.8-16.5 4.1-20.3 6-2.6 1.3-2.8 1.3-2.8-.5 0-1.1-.4-2.2-.9-2.5-1.1-.7-2.1 2.8-2.1 7.9v4H82v-5.8c0-3.1-.4-5.7-1-5.7-.5 0-1 .7-1 1.5 0 1.9-.5 1.9-6.5-.4-7.5-2.8-20.5-5.5-21.6-4.4-.5.5-1.3 3-1.8 5.6l-.8 4.7 4.1.1c4.8.1 4 .5-2.7 1.4-4.2.6-5 1.1-6.4 4.1-1.6 3.2-2 3.4-6 3.2l-4.2-.3-.7-5.4c-1.4-11 1.8-28.7 7-39 3.7-7.2 10-14.7 15.8-18.6C62-.3 62-.3 51.7.7zM12 9c0 .5-.5 1-1.1 1-.5 0-.7-.5-.4-1 .3-.6.8-1 1.1-1 .2 0 .4.4.4 1zm144 10.6c0 1.4-1.2 1.9-2.3.8-.9-.9.4-3.5 1.4-2.8.5.3.9 1.2.9 2zM32.9 27.4c-.3.3-1.1-.5-1.8-1.7-1.3-2.1-1.2-2.1.5-.5 1 1 1.6 2 1.3 2.2zM30 28.6c0 2-.7 1.7-2-.6-.9-1.6-.8-1.8.5-1.4.8.4 1.5 1.2 1.5 2zm147 .7c0 .2-1 1.2-2.2 2.3l-2.3 1.9 1.9-2.3c1.8-2.1 2.6-2.7 2.6-1.9zM13.4 43.8c.3.5-.1.9-.9.9s-1.2-.4-.9-.9c.3-.4.7-.8.9-.8.2 0 .6.4.9.8zm150.3 2.7c0 .8-.4 1.2-.9.9-.4-.3-.8-.9-.8-1.5 0-.5.4-.9.8-.9.5 0 .9.7.9 1.5zm-6.1 3.2c-1 1-1.9-.5-1-1.8.6-1.1.8-1.1 1.2 0 .2.7.1 1.5-.2 1.8zM16 53c0 .5-.4 1-1 1-.5 0-1-.5-1-1 0-.6.5-1 1-1 .6 0 1 .4 1 1zm12.3 5.8c-.4 1.6-3.3 2.8-3.3 1.4 0-.4 3.1-3.1 3.7-3.2 0 0-.1.8-.4 1.8zM14 59c0 .5-.9 1-2 1s-2-.5-2-1c0-.6.9-1 2-1s2 .4 2 1zm8 2c0 .5-.4 1-1 1-.5 0-1-.5-1-1 0-.6.5-1 1-1 .6 0 1 .4 1 1zm148.5 1c-.3.5-1 1-1.6 1-.5 0-.9-.5-.9-1 0-.6.7-1 1.6-1 .8 0 1.2.4.9 1zM12 63.5c0 .8-.4 1.5-1 1.5-.5 0-1-.7-1-1.5s.5-1.5 1-1.5c.6 0 1 .7 1 1.5zm65 5.4c0 4 .4 5 2 5.4 1 .3 2.1 0 2.4-.7 1.3-3.3.4 11.6-1 15.5-1.1 2.9-1.4 5.4-.9 6.5.7 1.6.9 1.3 1.5-1.6.4-1.9 1.2-4.8 1.9-6.3.6-1.6 1.1-6.8 1.1-11.7 0-8.6.1-9 2.4-9.6 1.3-.3 4.2 0 6.5.6 3.6 1 4.1 1.4 4.1 4 0 2.3.5 3 2 3 1.6 0 2-.7 2-3.4 0-6.7-.2-6.6 15.1-6.6H130l1 2.6c.6 1.4 1 3.8 1 5.4 0 1.5.6 3 1.4 3.3 1.9.7 2.6-.1 2.6-3 0-2.1.5-2.3 4.5-2.3h4.5v6.9c0 3.8.7 10.5 1.5 14.8 2.8 14.7 1.5 22.6-5.5 31.9-5.6 7.5-16.7 14.2-27.5 16.8l-3 .8 2.6-2.9c5.1-5.5 6.2-8.9 5.6-17.9-.7-9.6-1.6-11.9-8.2-20.7-5.8-7.6-8-9.2-7-4.9.8 3.7-1.4 5.8-4.4 4.3-2.1-1.2-6.4-.1-7.6 1.8-1 1.8-5.1 1.2-7-.9-1.8-2-5.5-2.8-5.5-1.1 0 .5-.9.7-2.1.4-1.8-.5-2-1.1-1.6-3.9.3-1.9.3-3.4-.1-3.4s-2.5 2.3-4.7 5.1c-2.2 2.7-5.3 6.6-7 8.6-3 3.6-3 3.8-3 15.7 0 9.6.4 12.8 1.7 15.3l1.8 3.2-4.6-1.6c-6.9-2.3-16.4-9.2-20.6-14.8-5.4-7.1-7.1-12.9-6.4-21.8.3-3.9.8-12.7 1.2-19.5l.6-12.2h4.4c4.2 0 4.4.1 4.4 3.1 0 2.4.4 3 1.8 2.7 1.2-.2 1.8-1.4 2-3.8.6-8.6-.5-8 15.7-8H77v4.9zM29 70c1.1 1.1 2 2.9 2 4.1 0 1.9-.3 1.8-3-1.1-1.6-1.7-3.7-3-4.6-2.8-2.2.4-3.8 5.1-3 8.3 1 3.9 2.2 2.9 1.8-1.4-.5-4.6 1.1-6 3.9-3.5 1.7 1.5 1.8 1.9.4 2.6-2.3 1.3-1.8 2.6.9 2.1 3.5-.7 4.1 2.3 1.1 5.9-1.4 1.6-2.5 3.9-2.5 5 0 1.7-.2 1.8-1.5.8-.8-.7-1.5-.9-1.5-.5 0 .9 4.1 6.8 5.4 7.7.6.4.7 1 .3 1.5-.5.4-1.7-.3-2.8-1.7-5.5-6.8-8.2-18.5-5.9-25.4 1-3 1.6-3.6 4.1-3.6 1.6 0 3.8.9 4.9 2zm128.9-.6c1.8 2.2 2.4 10.1 1.1 15.5-1.1 4.7-8 16.1-8 13.3 0-.7 1.1-2.8 2.5-4.6 2.9-3.9 3.3-5.6.6-3.2-1.7 1.6-1.8 1.6-1.4-.7.3-1.5-.4-3.4-2.1-5.4-3.1-3.7-2.6-6.7 1-6 2.7.5 3.2-.8.9-2.1-1.4-.7-1.3-1.1.4-2.6 2.8-2.5 4.4-1.1 3.9 3.5-.4 4.6.8 5.2 1.7.9.7-3.2-1.5-8-3.6-8-.6 0-2.4 1.3-4 2.9-2.5 2.6-2.9 2.7-2.9 1 0-4.4 7.2-7.8 9.9-4.5zm7.6 1.6c.3.6-.1.7-.9.4-1.8-.7-2.1-1.4-.7-1.4.6 0 1.3.4 1.6 1zM14 77c0 .5-.4 1-1 1-.5 0-1-.5-1-1 0-.6.5-1 1-1 .6 0 1 .4 1 1zm-4.3 2.2c-.3.8-.6.5-.6-.6-.1-1.1.2-1.7.5-1.3.3.3.4 1.2.1 1.9zm20.4 10.3c-.7 4.9-.7 4.9-1.5 1.8-.4-1.9-.3-4 .4-5.3 1.7-3.1 2-2.1 1.1 3.5zm120.8.2c.1.7-.3 1.3-.9 1.3-.5 0-1-1.5-.9-3.3 0-2.7.2-2.9.9-1.2.5 1.1.9 2.6.9 3.2zm19.6-1.7c-.3.5-1.2 1-1.8 1-.7 0-.6-.4.3-1 1.9-1.2 2.3-1.2 1.5 0zM16 91c0 .5-.4 1-1 1-.5 0-1-.5-1-1 0-.6.5-1 1-1 .6 0 1 .4 1 1zM6 93.4c0 .8-.5 1.8-1 2.1-.6.3-1-.3-1-1.4 0-1.2.5-2.1 1-2.1.6 0 1 .6 1 1.4zm65.7 7.3c-3.5 2-4.2 1.5-1.7-1.2 1.7-1.9 2.6-2.2 3.1-1.3.5.8 0 1.7-1.4 2.5zm36.6-1.3c1.6 2.3 1.6 2.4-.8 1.8-1.4-.4-2.5-1-2.5-1.5 0-2.3.1-2.7.9-2.7.5 0 1.6 1.1 2.4 2.4zM14 103c0 .5-.4 1-1 1-.5 0-1-.5-1-1 0-.6.5-1 1-1 .6 0 1 .4 1 1zm7.4 3.8c.2.4-.4.9-1.5.9-1.1.1-1.7-.2-1.4-.8.7-1.1 2.2-1.2 2.9-.1zm68.1 3.2c1.8 2 1.7 2-3.1 1.9-3.8 0-4.4-.2-2.8-.9 1.2-.5 2.5-1.3 2.9-1.9.8-1.4.9-1.4 3 .9zm21.7 5.8c1.7 1.7 1.2 9.1-.8 11.3-2.1 2.3-8 4.2-11.4 3.7-1.9-.2-2.5-.9-2.4-2.6.1-2.1-.3-2.2-8.2-2.2-7.6 0-8.2.1-7.7 1.9.7 2.9-3 4.6-6.8 3-4.5-1.8-6.9-5.5-6.9-10.6 0-3.6.4-4.5 2.3-5.3 3.5-1.4 40.3-.8 41.9.8zM22 121c0 .5-.4 1-1 1-.5 0-1-.5-1-1 0-.6.5-1 1-1 .6 0 1 .4 1 1zm128.4-.1c.3.5-.1 1.1-.9 1.4-.9.4-1.2.1-.8-.9.6-1.6 1-1.7 1.7-.5zm13.6.1c0 .5-.2 1-.4 1-.3 0-.8-.5-1.1-1-.3-.6-.1-1 .4-1 .6 0 1.1.4 1.1 1zm12.4 4.5c.3.8.1 1.5-.3 1.5-.5 0-1.1-.7-1.5-1.5-.3-.8-.1-1.5.3-1.5.5 0 1.1.7 1.5 1.5zm-30.6 1.5c-.7 1-1.4 1.7-1.7 1.5-.4-.4 1.8-3.5 2.5-3.5.2 0-.1.9-.8 2zm14.7 0c.3.5.2 1-.4 1-.5 0-1.3-.5-1.6-1-.3-.6-.2-1 .4-1 .5 0 1.3.4 1.6 1zm14 4c.3.5.1 1-.4 1-.6 0-1.1-.5-1.1-1 0-.6.2-1 .4-1 .3 0 .8.4 1.1 1zm-143 9c.3.6-.1.7-.9.4-1.8-.7-2.1-1.4-.7-1.4.6 0 1.3.4 1.6 1zm69.4 6.5c-.6.5-6 1-12.2 1-6.2 0-12-.5-12.9-1-1.2-.7 2.5-1 12.2-1 9.3 0 13.6.3 12.9 1zM11 156.4c0 .3-.4.8-1 1.1-.5.3-1 .1-1-.4 0-.6.5-1.1 1-1.1.6 0 1 .2 1 .4zm1 2.6c0 .5-.5 1-1.1 1-.5 0-.7-.5-.4-1 .3-.6.8-1 1.1-1 .2 0 .4.4.4 1zm148 1.8c0 .5-.7.9-1.5.9s-1.2-.4-.9-.9c.3-.4.9-.8 1.5-.8.5 0 .9.4.9.8zm-.9 3.9c1.3 1.6 1.2 1.7-.3.4-1-.7-1.8-1.5-1.8-1.7 0-.8.8-.3 2.1 1.3zm4.9 2.9c0 .8-.4 1.2-1 .9-.5-.3-1-1-1-1.6 0-.5.5-.9 1-.9.6 0 1 .7 1 1.6zm5.5 8.4c.3.5.2 1-.4 1-.5 0-1.3-.5-1.6-1-.3-.6-.2-1 .4-1 .5 0 1.3.4 1.6 1z"/><path d="M65.3 65.7c.9.2 2.3.2 3 0 .6-.3-.1-.5-1.8-.5-1.6 0-2.2.2-1.2.5zM109.8 65.7c.6.2 1.8.2 2.5 0 .6-.3.1-.5-1.3-.5-1.4 0-1.9.2-1.2.5zM55.9 68.3c-.9 1.7-.8 1.7 1 .7 1.5-.7 2.7-.8 3.9-.1 1.6 1 1.6 1 0 1.1-2.6 0-2.2 3.7.6 5.5 1.8 1.2 3 1.3 5 .6 2.4-1 3.1-2.5 2.7-5.9-.2-1.5 1.1-1.6 2.7 0 .8.8 1.2.8 1.2.1 0-2.1-2.6-3.1-9.3-3.5-5.9-.3-7-.2-7.8 1.5zm11.9 1.8c-.2.6-.8 1-1.3 1s-1.1-.4-1.3-1c-.2-.6.4-1.1 1.3-1.1s1.5.5 1.3 1.1zM112.1 66.9c-3 .3-5.6 1.1-5.8 1.7-.4 1.1 2.2 1.1 9.8-.1 3-.4 4.9-.3 5.3.4.4.6 1.2 1.1 1.8 1.1.6 0 .3-.9-.7-2s-2.5-1.9-3.4-1.8c-.9.1-4 .4-7 .7z"/><path d="M111.3 71.2c-2.9 1.4-2.9 2.4.1 4.3 3.7 2.5 8.6-.2 8.6-4.7 0-.6-.6-.5-1.5.2-1.2 1-1.9 1-2.7.2-1.4-1.4-1.6-1.4-4.5 0zM56.5 79c.3.5 3.7 1 7.6 1 3.9 0 6.9-.4 6.9-1s-3.2-1-7.6-1c-4.7 0-7.3.4-6.9 1zM107.5 79c.3.5 3.5 1 7 1s6.7-.5 7-1c.4-.6-2.2-1-7-1s-7.4.4-7 1zM80 121c0 .5 1.5.7 3.3.5 1.7-.3 2.6-.3 2 .1-2.1 1-1.4 2.3.9 1.6 1.4-.3 1.9-.2 1.4.6-.8 1.3 1.2 1.6 3.9.6 1.3-.5 1.4-.8.3-1.5-1-.7-1-.9.2-.9 1.3 0 1.3-.1 0-1-2-1.3-12-1.3-12 0zM59 5c0 .5.5 1 1 1 .6 0 1-.5 1-1 0-.6-.4-1-1-1-.5 0-1 .4-1 1zM108 10c0 .5.5 1 1 1 .6 0 1-.5 1-1 0-.6-.4-1-1-1-.5 0-1 .4-1 1zM75 11c0 .5.5 1 1 1 .6 0 1-.5 1-1 0-.6-.4-1-1-1-.5 0-1 .4-1 1zM70.5 14c.3.5.8 1 1.1 1 .2 0 .4-.5.4-1 0-.6-.5-1-1.1-1-.5 0-.7.4-.4 1zM105.5 14c-.3.5-.1 1 .4 1 .6 0 1.1-.5 1.1-1 0-.6-.2-1-.4-1-.3 0-.8.4-1.1 1zM45 16.1c0 .5.5.7 1 .4.6-.3 1-.8 1-1.1 0-.2-.4-.4-1-.4-.5 0-1 .5-1 1.1zM89 22c0 .5.5 1 1.1 1 .5 0 .7-.5.4-1-.3-.6-.8-1-1.1-1-.2 0-.4.4-.4 1zM96 22.1c0 .5.5.7 1 .4.6-.3 1-.8 1-1.1 0-.2-.4-.4-1-.4-.5 0-1 .5-1 1.1zM136 32c0 .5.5 1 1.1 1 .5 0 .7-.5.4-1-.3-.6-.8-1-1.1-1-.2 0-.4.4-.4 1zM37 38.1c0 .5.5.7 1 .4.6-.3 1-.8 1-1.1 0-.2-.4-.4-1-.4-.5 0-1 .5-1 1.1zM129.5 51.6c1.4 4.8 3.3 7.8 2.1 3.4-.3-1.4-.9-3.7-1.2-5.3-.4-1.5-1-2.7-1.5-2.7-.4 0-.2 2.1.6 4.6zM131.7 49.5c.3 1.6 1 3.9 1.4 5l.8 2v-2c0-1.1-.6-3.4-1.4-5l-1.4-3 .6 3zM48.5 49.2c-1.1 3.6-1.6 9.2-.7 8.3 1-1 2.4-9.5 1.6-9.5-.3 0-.6.6-.9 1.2zM45.5 53c-.4 1.7-.5 3.4-.2 3.6.3.3.8-.9 1.2-2.6.4-1.7.5-3.4.2-3.6-.3-.3-.8.9-1.2 2.6zM136.5 54c.3.5.8 1 1.1 1 .2 0 .4-.5.4-1 0-.6-.5-1-1.1-1-.5 0-.7.4-.4 1zM170.5 74c-1.3.5-1.4.9-.5.9.8 0 2.4-.4 3.5-.9 1.3-.5 1.4-.9.5-.9-.8 0-2.4.4-3.5.9zM165.8 75.7c.7.3 1.6.2 1.9-.1.4-.3-.2-.6-1.3-.5-1.1 0-1.4.3-.6.6zM158.8 113.7c.7.3 1.6.2 1.9-.1.4-.3-.2-.6-1.3-.5-1.1 0-1.4.3-.6.6zM12.8 114.7c.7.3 1.6.2 1.9-.1.4-.3-.2-.6-1.3-.5-1.1 0-1.4.3-.6.6zM163.8 114.7c.6.2 1.8.2 2.5 0 .6-.3.1-.5-1.3-.5-1.4 0-1.9.2-1.2.5zM5 116.2c-1.9.5-3.9 1.3-4.4 1.8-.7.7 6.5-1.1 9.9-2.4 2-.8-2.1-.4-5.5.6zM171.5 116c1.7.4 3.9.8 5 .8 1.6 0 1.5-.2-.5-.8-1.4-.4-3.6-.8-5-.8-2.2 0-2.2.1.5.8z"/></svg>